# xmcd
#
# Track frame offsets:
#	150
#	44373
#	69713
#	92827
#	117587
#	146496
#	168844
#	190163
#	208568
#	234960
#	261842
#	281410
#	306362
#	333764
#
# Disc length: 4595 seconds
#
# Revision: 1
# Processed by: cddbd v1.5.2PL0 Copyright (c) Steve Scherf et al.
# Submitted via: audiograbber 1.83.01
#
DISCID=c911f10e
DTITLE=Mohsin HAMID (Jörg Pohl) - So wirst du stinkreich im boomenden Asien (3v
DTITLE=4)
DYEAR=2013
DGENRE=Hörbuch - Humor
TTITLE0=24
TTITLE1=25
TTITLE2=26
TTITLE3=27
TTITLE4=28
TTITLE5=29
TTITLE6=30
TTITLE7=31
TTITLE8=32
TTITLE9=33
TTITLE10=34
TTITLE11=35
TTITLE12=36
TTITLE13=37
EXTD=
EXTT0=
EXTT1=
EXTT2=
EXTT3=
EXTT4=
EXTT5=
EXTT6=
EXTT7=
EXTT8=
EXTT9=
EXTT10=
EXTT11=
EXTT12=
EXTT13=
PLAYORDER=
